{"title":"Black Mass 2015 HC WEBRIP 1080p x264 AAC-SS","uid":12519657,"size":2379231106,"categoryP":"video","categoryS":"hd___movies","magnet":"?xt=urn:btih:912d29250e1b0c9e25156372530f9e1a5c1b8675&amp;dn=Black+Mass+2015+HC+WEBRIP+1080p+x264+AAC-SS&amp;tr=udp%3A%2F%2Ftracker.leechers-paradise.org%3A6969&amp;tr=udp%3A%2F%2Fzer0day.ch%3A1337&amp;tr=udp%3A%2F%2Fopen.demonii.com%3A1337&amp;tr=udp%3A%2F%2Ftracker.coppersurfer.tk%3A6969&amp;tr=udp%3A%2F%2Fexodus.desync.com%3A6969","seeders":1,"leechers":0,"uploader":"makintos13","files":1,"time":1443843003,"description":"Screens:\r\n \nhttp://imgmak.com/Zq\r\n\r\n::::::;\r\n\r\nGeneral\r\nComplete name : D:okBlack.Mass.2015.HC.WEBRIP.1080p.x264.AAC-SS.mp4\r\nFormat : MPEG-4\r\nFormat profile : Base Media\r\nCodec ID : isom\r\nFile size : 2.22 GiB\r\nDuration : 2h 2mn\r\nOverall bit rate mode : Variable\r\nOverall bit rate : 2 589 Kbps\r\nWriting application : Lavf56.25.101\r\n\r\nVideo\r\nID : 1\r\nFormat : AVC\r\nFormat/Info : Advanced Video Codec\r\nFormat profile :   \r\nFormat settings, CABAC : Yes\r\nFormat settings, ReFrames : 4 frames\r\nCodec ID : avc1\r\nCodec ID/Info : Advanced Video Coding\r\nDuration : 2h 2mn\r\nBit rate : 2 491 Kbps\r\nWidth : 1 920 pixels\r\nHeight : 800 pixels\r\nDisplay aspect ratio : 2.40:1\r\nFrame rate mode : Constant\r\nFrame rate : 23.976 fps\r\nColor space : YUV\r\nChroma subsampling : 4:2:0\r\nBit depth : 8 bits\r\nScan type : Progressive\r\nBits/(Pixel*Frame) : 0.068\r\nStream size : 2.13 GiB (96%)\r\n\r\nAudio\r\nID : 2\r\nFormat : AAC\r\nFormat/Info : Advanced Audio Codec\r\nFormat profile : HE-AAC / LC\r\nCodec ID : 40\r\nDuration : 2h 2mn\r\nBit rate mode : Variable\r\nBit rate : 92.8 Kbps\r\nMaximum bit rate : 128 Kbps\r\nChannel(s) : 2 channels\r\nChannel positions : Front: L R\r\nSampling rate : 48.0 KHz / 24.0 KHz\r\nCompression mode : Lossy\r\nStream size : 81.4 MiB (4%)\r\nLanguage : unk","torrent":{"xt":"urn:btih:912d29250e1b0c9e25156372530f9e1a5c1b8675","amp;dn":"Black+Mass+2015+HC+WEBRIP+1080p+x264+AAC-SS","amp;tr":["udp%3A%2F%2Ftracker.leechers-paradise.org%3A6969","udp%3A%2F%2Fzer0day.ch%3A1337","udp%3A%2F%2Fopen.demonii.com%3A1337","udp%3A%2F%2Ftracker.coppersurfer.tk%3A6969","udp%3A%2F%2Fexodus.desync.com%3A6969"],"infoHash":"912d29250e1b0c9e25156372530f9e1a5c1b8675","infoHashBuffer":{"type":"Buffer","data":[145,45,41,37,14,27,12,158,37,21,99,114,83,15,158,26,92,27,134,117]},"announce":[],"urlList":[]}}